<svg xmlns="http://www.w3.org/2000/svg" viewBox="0 0 330 330">
  <path d="M195 270c3.95 0 7.81-1.6 10.6-4.39A15.11 15.11 0 0 0 210 255c0-3.95-1.6-7.81-4.4-10.61-2.79-2.79-6.65-4.39-10.6-4.39s-7.81 1.6-10.61 4.39A15.11 15.11 0 0 0 180 255c0 3.95 1.6 7.82 4.39 10.61A15.13 15.13 0 0 0 195 270zm60 0c3.95 0 7.81-1.6 10.6-4.39A15.1 15.1 0 0 0 270 255c0-3.95-1.6-7.81-4.4-10.61-2.79-2.79-6.65-4.39-10.6-4.39s-7.82 1.6-10.61 4.39A15.13 15.13 0 0 0 240 255c0 3.95 1.6 7.81 4.39 10.61A15.13 15.13 0 0 0 255 270zM154.39 145.6c.35.35.72.69 1.1 1l.52.39c.22.16.43.33.66.48.21.15.43.27.65.4l.6.36.69.33.65.3c.22.09.45.16.67.24.24.09.47.18.71.25l.69.18c.24.06.49.13.74.18.26.05.53.08.79.12l.66.1a15.25 15.25 0 0 0 2.96 0l.67-.1.78-.12c.25-.05.5-.12.76-.19a8 8 0 0 0 1.39-.42c.22-.08.44-.15.65-.24l.67-.31c.22-.1.45-.2.67-.32l.61-.36.65-.4.64-.47.54-.4c.36-.3.71-.62 1.05-.95l.04-.04 50-50a15 15 0 0 0-21.2-21.22L180 98.8V15a15 15 0 0 0-30 0v83.79l-24.4-24.4a15 15 0 1 0-21.2 21.22l49.99 50z" fill="currentColor"/>
  <path d="M315 180H15a15 15 0 0 0-15 15v120a15 15 0 0 0 15 15h300a15 15 0 0 0 15-15V195a15 15 0 0 0-15-15zm-15 120H30v-90h270v90z" fill="currentColor"/>
</svg>